<?xml version="1.0" encoding="UTF-8"?>
<!DOCTYPE svg PUBLIC "-//W3C//DTD SVG 1.1//EN" "http://www.w3.org/Graphics/SVG/1.1/DTD/svg11.dtd">
<!-- Creator: CorelDRAW 2019 (64-Bit) -->
<svg xmlns="http://www.w3.org/2000/svg" xml:space="preserve" width="180px" height="80px" version="1.1" style="shape-rendering:geometricPrecision; text-rendering:geometricPrecision; image-rendering:optimizeQuality; fill-rule:evenodd; clip-rule:evenodd"
viewBox="0 0 180 79.71"
 xmlns:xlink="http://www.w3.org/1999/xlink">
 <defs>
  <style type="text/css">
   <![CDATA[
    .str0 {stroke:#111111;stroke-width:0.23;stroke-miterlimit:22.9256}
    .str1 {stroke:#111111;stroke-width:0.1;stroke-miterlimit:22.9256}
    .str2 {stroke:#111111;stroke-width:0.35;stroke-miterlimit:22.9256}
    .fil1 {fill:none;fill-rule:nonzero}
    .fil2 {fill:#111111}
    .fil0 {fill:#111111;fill-rule:nonzero}
   ]]>
  </style>
 </defs>
 <g id="Layer_x0020_1">
  <metadata id="CorelCorpID_0Corel-Layer"/>
  <g id="_2179473326608">
   <path class="fil0" d="M8.28 53.97l-2.59 7.55 -4.97 0 10.97 -31.71 8.09 0 11.16 31.71 -7.22 0 -2.79 -7.55 -12.65 0zm11.17 -4.63l-4.84 -13.54 -4.63 13.54 9.47 0z"/>
   <path class="fil0" d="M49.04 47.44l9.04 14.08 -8.36 0 -9.74 -17.15 3.89 0c0.1,0 0.35,0.02 0.75,0.04 0.39,0.02 0.73,0.03 1,0.03 3.8,0 5.75,-1.65 5.86,-4.97 0,-1.74 -0.46,-3.14 -1.35,-4.17 -0.9,-1.03 -2.08,-1.54 -3.55,-1.54l-6.47 0 0 27.76 -7.21 0 0 -31.71 14.56 0c7.08,0 10.62,3.06 10.62,9.19 -0.1,2.5 -0.82,4.38 -2.16,5.61 -1.34,1.24 -2.82,2.04 -4.44,2.43 -1.24,0.29 -2.01,0.44 -2.32,0.44 -0.08,0 -0.12,-0.01 -0.12,-0.04z"/>
   <polygon class="fil0" points="67.66,33.76 58.96,33.76 58.96,29.81 83.57,29.81 83.57,33.76 74.87,33.76 74.87,61.52 67.66,61.52 "/>
   <polygon class="fil0" points="86.05,29.81 107.62,29.81 107.62,33.76 93.26,33.76 93.26,43.01 105.23,43.01 105.23,46.96 93.26,46.96 93.26,57.58 107.82,57.58 107.82,61.52 86.05,61.52 "/>
   <polygon class="fil0" points="133.9,40.29 124.98,62.14 115.73,40.29 115.73,61.52 110.62,61.52 110.62,29.81 118.65,29.81 126.07,46.42 133.22,29.81 141.11,29.81 141.11,61.52 133.9,61.52 "/>
   <polygon class="fil0" points="152.48,29.81 152.48,61.52 145.26,61.52 145.26,29.81 "/>
   <path class="fil0" d="M162.48 37.57c0,1.2 1.01,2.12 3,2.73 2,0.62 4.02,1.18 6.05,1.7 2.04,0.53 3.81,1.42 5.33,2.7 1.52,1.28 2.3,3.25 2.36,5.88 0,2.62 -0.44,4.72 -1.32,6.32 -0.87,1.58 -2.1,2.75 -3.67,3.49 -1.58,0.74 -3.51,1.18 -5.76,1.34 -0.55,0.04 -1.32,0.07 -2.31,0.07 -1.65,0 -3.21,-0.13 -4.68,-0.37 -1.46,-0.25 -2.68,-0.51 -3.63,-0.8 -0.95,-0.3 -1.43,-0.48 -1.43,-0.54l-1.22 -4.83c0.01,0 0.5,0.21 1.47,0.63 0.98,0.42 2.15,0.81 3.52,1.16 1.37,0.36 2.88,0.56 4.55,0.61 2.67,0 4.48,-0.45 5.41,-1.31 0.91,-0.87 1.38,-2.19 1.38,-3.95 0,-2.09 -0.62,-3.47 -1.88,-4.12 -1.25,-0.66 -3.28,-1.3 -6.11,-1.9 -2.82,-0.61 -4.94,-1.48 -6.36,-2.63 -1.42,-1.14 -2.12,-3.16 -2.12,-6.06 0.07,-1.83 0.58,-3.35 1.54,-4.54 0.97,-1.21 2.24,-2.09 3.8,-2.67 1.57,-0.59 3.33,-0.92 5.28,-1.01 3.24,0 5.78,0.18 7.63,0.56 1.84,0.37 3.06,0.68 3.66,0.94l1.31 5.1c0,0 -0.46,-0.2 -1.34,-0.6 -0.89,-0.4 -2.02,-0.76 -3.4,-1.09 -1.39,-0.33 -3.03,-0.49 -4.94,-0.49 -1.85,0 -3.3,0.23 -4.35,0.67 -1.06,0.45 -1.65,1.44 -1.77,3.01z"/>
   <path class="fil1 str0" d="M8.28 53.97l-2.59 7.55 -4.97 0 10.97 -31.71 8.09 0 11.16 31.71 -7.22 0 -2.79 -7.55 -12.65 0zm11.17 -4.63l-4.84 -13.54 -4.63 13.54 9.47 0z"/>
   <path class="fil1 str0" d="M49.04 47.44l9.04 14.08 -8.36 0 -9.74 -17.15 3.89 0c0.1,0 0.35,0.02 0.75,0.04 0.39,0.02 0.73,0.03 1,0.03 3.8,0 5.75,-1.65 5.86,-4.97 0,-1.74 -0.46,-3.14 -1.35,-4.17 -0.9,-1.03 -2.08,-1.54 -3.55,-1.54l-6.47 0 0 27.76 -7.21 0 0 -31.71 14.56 0c7.08,0 10.62,3.06 10.62,9.19 -0.1,2.5 -0.82,4.38 -2.16,5.61 -1.34,1.24 -2.82,2.04 -4.44,2.43 -1.24,0.29 -2.01,0.44 -2.32,0.44 -0.08,0 -0.12,-0.01 -0.12,-0.04z"/>
   <polygon class="fil1 str0" points="67.66,33.76 58.96,33.76 58.96,29.81 83.57,29.81 83.57,33.76 74.87,33.76 74.87,61.52 67.66,61.52 "/>
   <polygon class="fil1 str0" points="86.05,29.81 107.62,29.81 107.62,33.76 93.26,33.76 93.26,43.01 105.23,43.01 105.23,46.96 93.26,46.96 93.26,57.58 107.82,57.58 107.82,61.52 86.05,61.52 "/>
   <polygon class="fil1 str0" points="133.9,40.29 124.98,62.14 115.73,40.29 115.73,61.52 110.62,61.52 110.62,29.81 118.65,29.81 126.07,46.42 133.22,29.81 141.11,29.81 141.11,61.52 133.9,61.52 "/>
   <polygon class="fil1 str0" points="152.48,29.81 152.48,61.52 145.26,61.52 145.26,29.81 "/>
   <path class="fil1 str0" d="M162.48 37.57c0,1.2 1.01,2.12 3,2.73 2,0.62 4.02,1.18 6.05,1.7 2.04,0.53 3.81,1.42 5.33,2.7 1.52,1.28 2.3,3.25 2.36,5.88 0,2.62 -0.44,4.72 -1.32,6.32 -0.87,1.58 -2.1,2.75 -3.67,3.49 -1.58,0.74 -3.51,1.18 -5.76,1.34 -0.55,0.04 -1.32,0.07 -2.31,0.07 -1.65,0 -3.21,-0.13 -4.68,-0.37 -1.46,-0.25 -2.68,-0.51 -3.63,-0.8 -0.95,-0.3 -1.43,-0.48 -1.43,-0.54l-1.22 -4.83c0.01,0 0.5,0.21 1.47,0.63 0.98,0.42 2.15,0.81 3.52,1.16 1.37,0.36 2.88,0.56 4.55,0.61 2.67,0 4.48,-0.45 5.41,-1.31 0.91,-0.87 1.38,-2.19 1.38,-3.95 0,-2.09 -0.62,-3.47 -1.88,-4.12 -1.25,-0.66 -3.28,-1.3 -6.11,-1.9 -2.82,-0.61 -4.94,-1.48 -6.36,-2.63 -1.42,-1.14 -2.12,-3.16 -2.12,-6.06 0.07,-1.83 0.58,-3.35 1.54,-4.54 0.97,-1.21 2.24,-2.09 3.8,-2.67 1.57,-0.59 3.33,-0.92 5.28,-1.01 3.24,0 5.78,0.18 7.63,0.56 1.84,0.37 3.06,0.68 3.66,0.94l1.31 5.1c0,0 -0.46,-0.2 -1.34,-0.6 -0.89,-0.4 -2.02,-0.76 -3.4,-1.09 -1.39,-0.33 -3.03,-0.49 -4.94,-0.49 -1.85,0 -3.3,0.23 -4.35,0.67 -1.06,0.45 -1.65,1.44 -1.77,3.01z"/>
   <line class="fil1 str0" x1="6.44" y1="74.27" x2="51.39" y2= "74.27" />
   <line class="fil1 str0" x1="128.55" y1="74.27" x2="173.51" y2= "74.27" />
   <path class="fil0" d="M66.63 72.59l3.31 5.17 -3.06 0 -3.57 -6.29 1.42 0c0.04,0 0.13,0.01 0.28,0.01 0.14,0.01 0.27,0.02 0.37,0.02 1.39,0 2.1,-0.61 2.14,-1.82 0,-0.64 -0.16,-1.15 -0.49,-1.53 -0.33,-0.38 -0.76,-0.57 -1.3,-0.57l-2.37 0 0 10.18 -2.64 0 0 -11.62 5.33 0c2.59,0 3.89,1.12 3.89,3.36 -0.04,0.92 -0.3,1.61 -0.79,2.06 -0.49,0.45 -1.03,0.75 -1.63,0.89 -0.45,0.11 -0.73,0.16 -0.85,0.16 -0.02,0 -0.04,0 -0.04,-0.02z"/>
   <polygon class="fil0" points="70.93,66.14 78.84,66.14 78.84,67.58 73.58,67.58 73.58,70.97 77.96,70.97 77.96,72.42 73.58,72.42 73.58,76.31 78.91,76.31 78.91,77.76 70.93,77.76 "/>
   <polygon class="fil0" points="87.24,74.46 87.24,66.16 89.14,66.16 89.14,77.78 86.05,77.78 81.81,68.95 81.81,77.76 79.94,77.76 79.94,66.14 83.21,66.14 "/>
   <polygon class="fil0" points="93.2,67.58 90.01,67.58 90.01,66.14 99.03,66.14 99.03,67.58 95.84,67.58 95.84,77.76 93.2,77.76 "/>
   <path class="fil0" d="M101.93 74.99l-0.95 2.77 -1.82 0 4.02 -11.62 2.96 0 4.09 11.62 -2.64 0 -1.03 -2.77 -4.63 0zm4.09 -1.7l-1.77 -4.96 -1.7 4.96 3.47 0z"/>
   <polygon class="fil0" points="113.59,76.31 119.23,76.31 119.23,77.76 110.95,77.76 110.95,66.14 113.59,66.14 "/>
   <path class="fil1 str1" d="M66.63 72.59l3.31 5.17 -3.06 0 -3.57 -6.29 1.42 0c0.04,0 0.13,0.01 0.28,0.01 0.14,0.01 0.27,0.02 0.37,0.02 1.39,0 2.1,-0.61 2.14,-1.82 0,-0.64 -0.16,-1.15 -0.49,-1.53 -0.33,-0.38 -0.76,-0.57 -1.3,-0.57l-2.37 0 0 10.18 -2.64 0 0 -11.62 5.33 0c2.59,0 3.89,1.12 3.89,3.36 -0.04,0.92 -0.3,1.61 -0.79,2.06 -0.49,0.45 -1.03,0.75 -1.63,0.89 -0.45,0.11 -0.73,0.16 -0.85,0.16 -0.02,0 -0.04,0 -0.04,-0.02z"/>
   <polygon class="fil1 str1" points="70.93,66.14 78.84,66.14 78.84,67.58 73.58,67.58 73.58,70.97 77.96,70.97 77.96,72.42 73.58,72.42 73.58,76.31 78.91,76.31 78.91,77.76 70.93,77.76 "/>
   <polygon class="fil1 str1" points="87.24,74.46 87.24,66.16 89.14,66.16 89.14,77.78 86.05,77.78 81.81,68.95 81.81,77.76 79.94,77.76 79.94,66.14 83.21,66.14 "/>
   <polygon class="fil1 str1" points="93.2,67.58 90.01,67.58 90.01,66.14 99.03,66.14 99.03,67.58 95.84,67.58 95.84,77.76 93.2,77.76 "/>
   <path class="fil1 str1" d="M101.93 74.99l-0.95 2.77 -1.82 0 4.02 -11.62 2.96 0 4.09 11.62 -2.64 0 -1.03 -2.77 -4.63 0zm4.09 -1.7l-1.77 -4.96 -1.7 4.96 3.47 0z"/>
   <polygon class="fil1 str1" points="113.59,76.31 119.23,76.31 119.23,77.76 110.95,77.76 110.95,66.14 113.59,66.14 "/>
  </g>
  <path class="fil2 str2" d="M119.17 10.25c0,0 10.35,-8.87 24.94,-1.24 1.03,0.54 2.02,1.21 2.94,1.94l8.44 -7.5 -0.74 -0.71 3.74 -0.83 -1.37 3.4 -0.85 -0.92 -8.21 7.42c2.11,1.9 3.82,4.08 5.01,5.76 5.03,7.16 2.83,14.48 2.83,14.48 0,0 0.48,-10.44 -9.52,-18.71l-6.22 5.61 -0.36 1.63 -2.79 2.59 0.11 -2.4 -2.44 -0.2 2.73 -2.5 1.77 -0.12 6.13 -5.45c-0.39,-0.3 -0.8,-0.6 -1.23,-0.89 -12.36,-8.46 -24.91,-1.36 -24.91,-1.36zm18.08 9.85l-0.95 -0.04 1.42 -1.34 1.01 0.05 -1.48 1.33zm0.51 0.57l0.02 0.96 1.37 -1.39 -0.02 -1.01 -1.37 1.44z"/>
 </g>
</svg>
